<svg xmlns="http://www.w3.org/2000/svg" xmlns:xlink="http://www.w3.org/1999/xlink" version="1.1" x="0px" y="0px" width="100px" height="100px" viewBox="0 0 100 100" enable-background="new 0 0 100 100" xml:space="preserve">
<g id="Captions">
</g>
<g id="Your_Icon">
	<polygon points="9.9,87 99,87 99,14.1 50.4,14.1 50.4,22.2 90.9,22.2 90.9,78.899 18,78.899 18,54.601 9.9,54.601  "/>
	<polygon points="34.2,14.1 26.1,14.1 26.1,6 18,6 9.9,6 9.9,22.2 9.9,30.3 1.8,30.3 1.8,46.5 18,46.5 18,38.4 18,30.3 18,22.2    26.1,22.2 34.2,22.2 34.2,38.4 26.1,38.4 26.1,54.601 34.2,54.601 42.3,54.601 42.3,38.4 42.3,22.2 42.3,14.1  "/>
</g>
</svg>