<svg xmlns="http://www.w3.org/2000/svg" xmlns:xlink="http://www.w3.org/1999/xlink" version="1.1" id="Layer_2" x="0px" y="0px" width="100px" height="100px" viewBox="0 0 100 100" enable-background="new 0 0 100 100" xml:space="preserve">
<g>
	<path fill="none" d="M2.398,60.916c0.013,0.003,0.504,0.805,5.155,1.15c-0.544-1.366-0.937-2.694-1.19-3.987   C4.19,59.154,2.45,60.36,2.398,60.916z"/>
	<path fill="none" d="M81.626,37.438c-8.767,1.458-14.169,14.944-14.223,15.08l-0.64,1.624l-1.695-0.413   c-4.382-1.069-14.736-4.006-16.257-8.19c-0.482-1.326-0.336-2.63,0.412-3.672c0.876-1.221,2.435-1.848,3.933-2.166   c-2.625-3.564-5.567-5.511-8.774-5.796c-4.708-0.415-9.195,2.711-11.842,5.043l0.039,0.354c-0.017,0.002-0.199,0.023-0.508,0.066   c-1.211,1.113-1.938,1.96-1.96,1.986l-1.596-1.338c-5.292,1.159-14.233,3.964-17.368,10.063c-1.159,2.255-1.402,4.841-0.746,7.728   c1.272-0.725,3.659-1.44,6.479,0.839c1.137,0.918,1.12,1.711,0.906,2.215c-0.395,0.928-1.703,1.204-3.127,1.204   c-0.632,0-1.286-0.054-1.894-0.131c-0.361-0.046-0.68-0.099-0.98-0.154c0.174,0.376,0.36,0.757,0.56,1.142   c1.522,1.169,9.211,6.742,16.341,5.809c0.881-0.115,1.713-0.335,2.507-0.64l0.004-0.031c0.016,0.002,0.038,0.004,0.054,0.007   c2.067-0.81,3.85-2.261,5.395-4.412l3.249,2.334c-0.604,0.841-1.252,1.59-1.931,2.277c1.899-0.108,3.846-0.379,5.458-0.933   l0.704-1.098c0.249,0.159,0.497,0.315,0.746,0.47c0.004-0.002,0.009-0.004,0.013-0.006l0.012,0.021   c3.531,2.192,6.993,3.875,8.256,4.023c-0.18-0.537-0.843-1.859-3.248-4.778l1.441-1.188l-0.177-0.468l18.716-7.054l0.246,2.215   c0.642,0.118,2.01,0.06,2.96,0.018c2.185-0.097,4.91-0.215,7.314,0.643c2.341,0.835,5.899-1.101,7.099-2.291   c-0.635-0.689-0.71-1.45-0.705-1.807c0.013-0.888,0.439-1.625,1.133-2.289c-2.628,0.371-5.322,0.884-6.661,1.395   c-1.47,0.561-2.766,0.534-3.856-0.079c-1.728-0.972-2.092-2.955-2.287-4.021c-0.021-0.112-0.037-0.213-0.056-0.296   c-0.451-1.108-0.197-3,1.051-4.453c1.525-1.775,4.874-3.364,12.183-0.853c4.411,1.517,5.982,0.801,6.452,0.423   c0.423-0.34,0.573-0.871,0.625-1.262C90.57,39.129,85.952,36.716,81.626,37.438z M27.889,52.173   c0.422-0.623,1.074-0.965,1.836-0.965v2c-0.11,0-0.14,0.025-0.181,0.086c-0.089,0.133-0.143,0.365-0.143,0.624   c0,0.564,0.22,0.73,0.327,0.813c0.107-0.083,0.328-0.249,0.328-0.813c0-0.259-0.053-0.491-0.143-0.624   c-0.041-0.061-0.07-0.086-0.182-0.086v-2c0.764,0,1.416,0.342,1.837,0.965c0.319,0.47,0.487,1.074,0.487,1.746   c0,1.49-0.871,3.033-2.328,3.033c-1.456,0-2.326-1.543-2.327-3.033C27.401,53.247,27.57,52.643,27.889,52.173z M15.867,53.919   c-0.001-0.672,0.168-1.276,0.487-1.746c0.422-0.623,1.074-0.965,1.836-0.965v2c-0.11,0-0.14,0.025-0.181,0.086   c-0.089,0.133-0.143,0.365-0.143,0.624c0,0.564,0.22,0.73,0.327,0.813c0.107-0.083,0.328-0.249,0.328-0.813   c0-0.259-0.053-0.491-0.143-0.624c-0.041-0.061-0.07-0.086-0.182-0.086v-2c0.764,0,1.416,0.342,1.837,0.965   c0.319,0.47,0.487,1.074,0.487,1.746c0,1.49-0.871,3.033-2.328,3.033C16.738,56.952,15.868,55.409,15.867,53.919z M28.967,64.547   c-0.227,0.113-0.455,0.16-0.683,0.16c-0.567,0-1.136-0.29-1.691-0.573c-1.175-0.599-2.013-0.949-2.92-0.386   c-1.108,0.687-2.186,0.888-3.209,0.601c-1.557-0.44-2.302-1.85-2.382-2.009l0.894-0.448l0.89-0.456   c0.004,0.008,0.422,0.792,1.153,0.991c0.456,0.125,0.994-0.002,1.6-0.378c1.937-1.2,3.781-0.26,4.884,0.304   c0.278,0.142,0.66,0.336,0.794,0.354c-0.066-0.01-0.159,0.016-0.239,0.06l1.841,0.317C29.774,63.808,29.461,64.3,28.967,64.547z    M39.159,60.861c-0.395,0.928-1.703,1.204-3.127,1.204c-0.632,0-1.286-0.054-1.894-0.131c-3.923-0.495-4.103-1.67-4.162-2.057   c-0.061-0.401,0.013-1.154,1.193-1.693l0.004,0.008c0.122-0.088,0.26-0.181,0.418-0.278c1.218-0.753,3.702-1.659,6.661,0.732   C39.391,59.564,39.374,60.357,39.159,60.861z"/>
	<path fill="none" d="M32.644,59.615c-0.003,0.002-0.007,0.004-0.01,0.006c1.143,0.322,3.068,0.524,4.153,0.417   C35.338,58.954,33.946,58.812,32.644,59.615z"/>
	<path fill="none" d="M79.42,48.658c-0.407,0.294-0.519,0.658-0.548,0.828c0.084,0.262,0.134,0.534,0.189,0.833   c0.053,0.292,0.17,0.929,0.32,1.213c0.089-0.012,0.24-0.044,0.465-0.13c2.372-0.904,6.916-1.547,8.511-1.753   c-0.439-0.125-0.891-0.268-1.354-0.427C81.889,47.462,79.996,48.243,79.42,48.658z"/>
	<path fill="none" d="M15.413,60.038c-1.45-1.084-2.841-1.226-4.143-0.423c-0.003,0.002-0.007,0.004-0.01,0.006   C12.402,59.943,14.327,60.146,15.413,60.038z"/>
	<path d="M38.253,58.646c-2.959-2.392-5.443-1.485-6.661-0.732c-0.158,0.098-0.296,0.19-0.418,0.278l-0.004-0.008   c-1.181,0.539-1.254,1.292-1.193,1.693c0.059,0.387,0.238,1.562,4.162,2.057c0.607,0.077,1.262,0.131,1.894,0.131   c1.424,0,2.732-0.276,3.127-1.204C39.374,60.357,39.391,59.564,38.253,58.646z M32.634,59.621c0.003-0.002,0.007-0.004,0.01-0.006   c1.302-0.803,2.694-0.661,4.143,0.423C35.702,60.146,33.777,59.943,32.634,59.621z"/>
	<path d="M28.296,62.707c-0.134-0.019-0.516-0.213-0.794-0.354c-1.104-0.563-2.947-1.504-4.884-0.304   c-0.605,0.376-1.144,0.503-1.6,0.378c-0.731-0.199-1.149-0.983-1.153-0.991l-0.89,0.456l-0.894,0.448   c0.08,0.159,0.825,1.568,2.382,2.009c1.023,0.287,2.102,0.086,3.209-0.601c0.908-0.563,1.745-0.213,2.92,0.386   c0.556,0.283,1.125,0.573,1.691,0.573c0.228,0,0.456-0.047,0.683-0.16c0.494-0.247,0.807-0.739,0.932-1.463l-1.841-0.317   C28.138,62.723,28.23,62.697,28.296,62.707z"/>
	<path d="M99.376,43.633l-0.07-0.602l-0.393-0.462c-5.96-7.012-12-10.066-17.942-9.077c-8.973,1.492-14.659,11.847-16.575,15.931   c-5.903-1.609-11.328-3.986-11.825-5.252c-0.007-0.018-0.012-0.033-0.017-0.047c0.532-0.412,2.434-0.769,4.031-0.735l3.552,0.081   l-1.772-3.078c-3.734-6.483-8.326-10.007-13.647-10.473c-5.897-0.518-11.199,2.924-14.426,5.673   c-4.919,0.815-18.135,3.786-22.699,12.652c-1.225,2.38-1.724,4.969-1.516,7.744c-5.451,2.473-5.789,4.473-5.648,5.261   c0.308,1.723,2.749,2.606,8.05,2.881c0.271,0.553,0.558,1.109,0.875,1.673l0.27-0.151l-0.11,0.134   c0.375,0.31,8.668,7.051,17.543,7.051c0.709,0,1.422-0.044,2.134-0.137c0.867-0.112,1.696-0.313,2.505-0.562   c0.935,0.087,2.429,0.192,4.185,0.192c3.422,0,7.821-0.401,10.931-2.124c2.262,1.269,4.868,2.495,6.578,2.495   c0.609,0,1.104-0.156,1.43-0.521c0.765-0.862,0.456-2.225-1.126-4.544l13.629-5.136c1.441,1.184,3.955,1.073,5.945,0.987   c1.934-0.086,4.128-0.183,5.796,0.414c4.535,1.615,11.081-1.872,12.459-4.895c0.472-1.036,0.421-2.087-0.083-2.918   c0.758-0.482,1.823-1.042,2.444-1.368c2.168-1.14,3.362-1.768,3.362-3.264c0-0.691-0.347-1.342-0.927-1.742   c-0.032-0.022-0.065-0.045-0.101-0.068c0.377-0.186,0.727-0.409,1.048-0.667C99.694,47.021,99.416,43.974,99.376,43.633z    M2.398,60.916c0.051-0.556,1.792-1.762,3.965-2.837c0.253,1.293,0.646,2.621,1.19,3.987C2.903,61.721,2.412,60.919,2.398,60.916z    M94.757,45.861c-0.47,0.377-2.041,1.094-6.452-0.423c-7.309-2.511-10.657-0.922-12.183,0.853   c-1.248,1.453-1.502,3.345-1.051,4.453c0.019,0.083,0.035,0.184,0.056,0.296c0.195,1.065,0.56,3.049,2.287,4.021   c1.091,0.613,2.387,0.64,3.856,0.079c1.339-0.511,4.033-1.023,6.661-1.395c-0.693,0.664-1.12,1.401-1.133,2.289   c-0.005,0.356,0.07,1.117,0.705,1.807c-1.199,1.19-4.758,3.126-7.099,2.291c-2.404-0.857-5.13-0.739-7.314-0.643   c-0.95,0.042-2.318,0.101-2.96-0.018l-0.246-2.215l-18.716,7.054l0.177,0.468l-1.441,1.188c2.405,2.919,3.068,4.241,3.248,4.778   c-1.264-0.148-4.725-1.831-8.256-4.023l-0.012-0.021c-0.004,0.002-0.009,0.004-0.013,0.006c-0.249-0.154-0.497-0.311-0.746-0.47   l-0.704,1.098c-1.613,0.554-3.56,0.824-5.458,0.933c0.678-0.688,1.327-1.437,1.931-2.277l-3.249-2.334   c-1.545,2.151-3.328,3.603-5.395,4.412c-0.017-0.003-0.038-0.005-0.054-0.007l-0.004,0.031c-0.794,0.305-1.625,0.524-2.507,0.64   c-7.13,0.934-14.819-4.64-16.341-5.809c-0.2-0.385-0.386-0.766-0.56-1.142c0.3,0.056,0.619,0.108,0.98,0.154   c0.607,0.077,1.262,0.131,1.894,0.131c1.424,0,2.732-0.276,3.127-1.204c0.214-0.504,0.231-1.297-0.906-2.215   c-2.819-2.279-5.206-1.563-6.479-0.839c-0.656-2.887-0.413-5.473,0.746-7.728c3.135-6.1,12.076-8.905,17.368-10.063l1.596,1.338   c0.022-0.026,0.749-0.874,1.96-1.986c0.31-0.043,0.492-0.064,0.508-0.066l-0.039-0.354c2.647-2.332,7.134-5.458,11.842-5.043   c3.207,0.285,6.149,2.232,8.774,5.796c-1.498,0.318-3.057,0.945-3.933,2.166c-0.748,1.042-0.894,2.346-0.412,3.672   c1.521,4.185,11.875,7.121,16.257,8.19l1.695,0.413l0.64-1.624c0.054-0.136,5.456-13.622,14.223-15.08   c4.326-0.722,8.944,1.691,13.756,7.161C95.33,44.99,95.18,45.521,94.757,45.861z M88.357,49.648   c-1.595,0.207-6.139,0.85-8.511,1.753c-0.225,0.086-0.376,0.118-0.465,0.13c-0.15-0.284-0.268-0.921-0.32-1.213   c-0.056-0.299-0.105-0.571-0.189-0.833c0.029-0.17,0.141-0.534,0.548-0.828c0.576-0.415,2.469-1.195,7.584,0.563   C87.467,49.38,87.918,49.522,88.357,49.648z M11.259,59.621c0.003-0.002,0.007-0.004,0.01-0.006   c1.302-0.803,2.693-0.661,4.143,0.423C14.327,60.146,12.402,59.943,11.259,59.621z"/>
	<path d="M20.522,53.919c0-0.672-0.168-1.276-0.487-1.746c-0.421-0.623-1.073-0.965-1.837-0.965v2c0.111,0,0.141,0.025,0.182,0.086   c0.09,0.133,0.143,0.365,0.143,0.624c0,0.564-0.221,0.73-0.328,0.813c-0.107-0.083-0.327-0.249-0.327-0.813   c0-0.259,0.054-0.491,0.143-0.624c0.041-0.061,0.07-0.086,0.181-0.086v-2c-0.762,0-1.414,0.342-1.836,0.965   c-0.319,0.47-0.488,1.074-0.487,1.746c0.001,1.49,0.871,3.033,2.327,3.033C19.651,56.952,20.522,55.409,20.522,53.919z"/>
	<path d="M29.729,56.952c1.457,0,2.328-1.543,2.328-3.033c0-0.672-0.168-1.276-0.487-1.746c-0.421-0.623-1.073-0.965-1.837-0.965v2   c0.111,0,0.141,0.025,0.182,0.086c0.09,0.133,0.143,0.365,0.143,0.624c0,0.564-0.221,0.73-0.328,0.813   c-0.107-0.083-0.327-0.249-0.327-0.813c0-0.259,0.054-0.491,0.143-0.624c0.041-0.061,0.07-0.086,0.181-0.086v-2   c-0.762,0-1.414,0.342-1.836,0.965c-0.319,0.47-0.488,1.074-0.487,1.746C27.403,55.409,28.273,56.952,29.729,56.952z"/>
</g>
</svg>